<?xml version="1.0" standalone="no"?>
<!DOCTYPE svg PUBLIC "-//W3C//DTD SVG 20010904//EN"
 "http://www.w3.org/TR/2001/REC-SVG-20010904/DTD/svg10.dtd">
<svg version="1.0" xmlns="http://www.w3.org/2000/svg"
 width="625.000000pt" height="625.000000pt" viewBox="0 0 625.000000 625.000000"
 preserveAspectRatio="xMidYMid meet">
<metadata>
Created by potrace 1.14, written by Peter Selinger 2001-2017
</metadata>
<g transform="translate(0.000000,625.000000) scale(0.100000,-0.100000)"
fill="#000000" stroke="none">
<path d="M1163 3612 l-33 -3 0 -319 c0 -196 4 -339 11 -371 46 -213 223 -322
425 -263 41 12 68 29 110 69 56 55 77 92 100 179 19 70 20 706 2 707 -43 3
-213 -2 -217 -7 -3 -2 -6 -152 -6 -332 -2 -350 -5 -375 -50 -392 -64 -24 -116
1 -133 66 -5 16 -8 172 -8 346 l1 317 -85 3 c-47 2 -100 2 -117 0z"/>
<path d="M1909 3610 l-75 -5 0 -477 0 -478 113 0 c62 0 114 3 114 8 1 4 2 53
4 109 1 57 5 106 8 110 4 3 136 7 295 7 l287 0 70 -117 70 -117 128 1 c70 0
126 3 123 7 -2 4 -30 52 -61 107 -32 55 -68 117 -79 137 l-21 36 29 23 c93 73
148 186 140 290 -9 128 -48 209 -135 279 -52 41 -146 76 -214 79 -112 5 -725
6 -796 1z m854 -222 c52 -35 76 -67 82 -112 12 -78 -28 -149 -98 -175 -18 -7
-149 -11 -355 -11 l-327 0 1 127 c1 71 2 142 3 158 l1 30 333 0 c298 0 336 -2
360 -17z"/>
<path d="M3835 3610 l-40 -5 0 -475 0 -475 115 0 115 0 5 114 5 115 289 0 289
1 23 -31 c13 -17 24 -34 24 -38 0 -4 16 -32 35 -62 19 -30 35 -58 35 -63 0 -4
8 -15 18 -24 15 -14 41 -17 140 -17 67 0 122 3 122 6 0 3 -8 18 -18 32 -10 15
-22 34 -25 42 -4 8 -18 33 -32 55 -13 22 -31 54 -40 70 -9 17 -22 41 -30 55
-14 24 -12 27 31 68 59 57 89 105 109 175 59 208 -95 433 -312 453 -75 7 -805
11 -858 4z m892 -223 c48 -25 83 -83 83 -135 0 -60 -23 -103 -71 -134 l-41
-27 -334 -1 -334 0 0 157 0 158 333 0 c293 -1 336 -3 364 -18z"/>
<path d="M636 3564 c-14 -25 -26 -50 -26 -55 0 -5 -4 -9 -10 -9 -5 0 -10 -6
-10 -12 0 -7 -21 -49 -46 -93 -25 -44 -62 -109 -81 -145 -20 -36 -55 -99 -78
-140 -23 -41 -57 -102 -75 -135 -18 -33 -41 -74 -51 -92 -10 -18 -35 -63 -55
-100 -21 -37 -43 -77 -51 -88 -31 -46 -43 -45 512 -44 289 0 525 2 525 5 0 6
-53 105 -143 264 -11 19 -35 64 -55 100 -19 36 -51 94 -72 130 -21 36 -54 97
-75 135 -49 90 -177 319 -180 323 -2 2 -14 -18 -29 -44z m134 -588 c28 -60 48
-111 45 -114 -3 -3 -74 -6 -159 -6 -175 -1 -163 -13 -109 99 16 33 49 101 73
152 l44 91 27 -56 c15 -31 51 -106 79 -166z"/>
<path d="M3330 3596 c-50 -16 -77 -33 -127 -79 -70 -65 -103 -147 -98 -245 4
-72 8 -89 34 -138 55 -103 158 -166 275 -169 39 -1 84 2 101 7 202 63 293 287
192 474 -25 47 -92 110 -145 135 -55 25 -176 34 -232 15z m176 -217 c103 -97
-8 -267 -132 -202 -68 35 -90 117 -48 181 35 53 134 64 180 21z"/>
<path d="M5575 3572 c-11 -20 -27 -48 -36 -62 -9 -14 -36 -63 -61 -110 -25
-47 -56 -103 -68 -125 -13 -22 -34 -60 -47 -84 -24 -45 -52 -94 -93 -166 -12
-22 -36 -65 -53 -95 -17 -30 -40 -73 -52 -95 -67 -120 -95 -173 -95 -178 0 -3
238 -6 529 -6 l530 1 -18 32 c-10 17 -37 67 -61 111 -24 44 -83 152 -133 240
-50 88 -104 185 -120 215 -17 30 -49 89 -72 130 -24 41 -57 102 -75 135 -54
100 -53 99 -75 57z m86 -509 c33 -71 69 -145 79 -165 13 -26 15 -38 7 -39 -50
-4 -298 -1 -303 3 -3 3 15 48 39 99 25 52 59 124 76 162 17 37 34 67 37 67 3
0 32 -57 65 -127z"/>
<path d="M3105 2851 c-3 -2 -5 -48 -5 -102 l0 -99 325 1 c269 1 325 4 326 15
1 8 1 23 1 34 0 11 0 51 -1 88 l-1 69 -320 -1 c-177 0 -323 -2 -325 -5z"/>
</g>
</svg>
