<svg width="120" height="120" viewBox="0 0 120 120" fill="none" xmlns="http://www.w3.org/2000/svg">
<g id="Status">
<g id="&#208;&#161;&#208;&#187;&#208;&#190;&#208;&#185; 2">
<g id="&#208;&#161;&#208;&#187;&#208;&#190;&#208;&#185; 1">
<g id="Canvas">
<g id="statuses/statuses copy 8">
<g id="step">
<g id="Oval">
<path id="path0 fill" d="M86.6673 99.9105C78.7738 105.185 69.4935 108 60 108C47.2696 108 35.0606 102.943 26.0589 93.9411C17.0571 84.9394 12 72.7304 12 60C12 50.5065 14.8151 41.2262 20.0895 33.3326C25.3638 25.4391 32.8603 19.2868 41.6312 15.6538C50.402 12.0208 60.0532 11.0702 69.3643 12.9223C78.6754 14.7744 87.2282 19.346 93.9411 26.0589C100.654 32.7718 105.226 41.3246 107.078 50.6357C108.93 59.9468 107.979 69.5979 104.346 78.3688C100.713 87.1396 94.5609 94.6362 86.6673 99.9105Z" stroke="#AAB414" stroke-width="4"/>
</g>
<g id="Page 1">
<path id="path1 fill" d="M80 40L51.35 66.25L40 55.95L35 61.45L52.5 80L85 45.5L80 40Z" fill="#AAB414"/>
</g>
</g>
</g>
</g>
</g>
</g>
</g>
</svg>
